<svg width="168" height="38" viewBox="0 0 168 38" fill="none" xmlns="http://www.w3.org/2000/svg">
<g clip-path="url(#clip0_9_51)">
<path d="M36.2188 3.86122C36.2188 2.36611 37.2048 1.36133 38.7531 1.36133C40.3014 1.36133 41.2874 2.36611 41.2874 3.86122V19.5117H49.7624C51.2129 19.5117 52.3945 20.2431 52.3945 21.6177C52.3945 22.9922 51.2211 23.7237 49.7624 23.7237H39.185C37.3922 23.7237 36.2188 23.0244 36.2188 20.7978V3.86122Z" fill="#00AFE3"/>
<path d="M62.2395 7.37305C67.683 7.37305 70.5922 11.0385 70.5922 15.7328C70.5922 20.186 68.392 24.1247 62.2395 24.1247C56.087 24.1247 53.8867 20.186 53.8867 15.7328C53.8867 11.0304 56.7959 7.37305 62.2395 7.37305ZM62.2395 20.8291C64.9286 20.8291 66.0776 18.4497 66.0776 15.7328C66.0776 12.831 64.8716 10.6687 62.2395 10.6687C59.6073 10.6687 58.4013 12.839 58.4013 15.7328C58.4013 18.4497 59.5421 20.8291 62.2395 20.8291Z" fill="#00AFE3"/>
<path d="M81.1039 7.37305C84.8769 7.37305 87.6964 9.47906 87.6964 11.5529C87.6964 12.831 86.7348 13.4741 85.594 13.4741C83.4589 13.4741 84.2331 10.8536 80.9816 10.8536C79.2215 10.8536 77.1435 12.0433 77.1435 16.0704C77.1435 18.8436 78.4717 20.6442 80.949 20.6442C84.1027 20.6442 83.4263 17.7745 85.8059 17.7745C86.9467 17.7745 87.6964 18.5944 87.6964 19.4867C87.6964 21.44 85.4718 24.1247 80.8268 24.1247C75.261 24.1247 72.6289 20.7406 72.6289 16.0704C72.6289 10.942 75.5707 7.37305 81.1039 7.37305Z" fill="#00AFE3"/>
<path d="M105.11 19.4227C105.11 21.2876 105.574 21.7136 105.574 22.413C105.574 23.4177 104.613 24.1251 103.529 24.1251C101.581 24.1251 100.929 22.9033 100.872 21.5287C99.1121 23.4499 97.0667 24.1251 94.6872 24.1251C92.1203 24.1251 89.5859 22.3888 89.5859 19.5755C89.5859 15.8859 92.4299 14.849 95.8933 14.4471L98.6476 14.1416C99.7315 14.021 100.595 13.7718 100.595 12.4938C100.595 11.2157 99.267 10.661 97.7512 10.661C94.4101 10.661 94.3205 13.1047 92.5196 13.1047C91.3787 13.1047 90.6046 12.3089 90.6046 11.3925C90.6046 9.62412 93.1389 7.36537 97.7838 7.36537C102.111 7.36537 105.118 8.73991 105.118 11.9391V19.4147L105.11 19.4227ZM100.595 16.2235C100.098 16.6817 99.1692 16.8344 98.6476 16.9228L97.0097 17.164C95.1191 17.4373 94.1005 18.016 94.1005 19.3584C94.1005 20.3632 95.0621 21.1911 96.6022 21.1911C99.0795 21.1911 100.595 19.6076 100.595 17.9598V16.2235Z" fill="#00AFE3"/>
<path d="M109.25 3.58792C109.25 2.12496 110.146 1.36133 111.507 1.36133C112.868 1.36133 113.765 2.12496 113.765 3.58792V21.899C113.765 23.362 112.868 24.1256 111.507 24.1256C110.146 24.1256 109.25 23.362 109.25 21.899V3.58792Z" fill="#00AFE3"/>
<path d="M120.113 1.24023C121.408 1.24023 122.468 2.27717 122.468 3.56328C122.468 4.8494 121.417 5.88633 120.113 5.88633C118.809 5.88633 117.758 4.8494 117.758 3.56328C117.758 2.27717 118.809 1.24023 120.113 1.24023ZM117.855 9.6C117.855 8.41034 118.353 7.37341 120.113 7.37341C121.873 7.37341 122.37 8.41034 122.37 9.6V21.8985C122.37 23.0882 121.873 24.1251 120.113 24.1251C118.353 24.1251 117.855 23.0882 117.855 21.8985V9.6Z" fill="#00AFE3"/>
<path d="M132.272 7.37341C135.703 7.37341 139.174 8.7158 139.174 10.7575C139.174 11.7944 138.465 12.7108 137.283 12.7108C135.523 12.7108 135.458 10.6691 132.614 10.6691C131.033 10.6691 130.015 11.0951 130.015 12.0436C130.015 13.0806 131.033 13.3217 132.427 13.6272L134.317 14.0532C136.884 14.6319 139.948 15.701 139.948 18.8118C139.948 22.4451 136.387 24.1251 132.989 24.1251C128.906 24.1251 125.5 22.3245 125.5 20.1301C125.5 19.1575 126.054 18.2652 127.325 18.2652C129.273 18.2652 129.46 21.0143 132.802 21.0143C134.407 21.0143 135.434 20.315 135.434 19.3986C135.434 18.2733 134.448 18.0884 132.834 17.6865L130.178 17.0434C127.545 16.4003 125.508 15.3313 125.508 12.341C125.508 8.70776 129.159 7.36537 132.28 7.36537L132.272 7.37341Z" fill="#00AFE3"/>
<path d="M143.989 10.7012H143.215C141.943 10.7012 141.422 10.2109 141.422 9.23828C141.422 8.26565 141.952 7.77532 143.215 7.77532H143.989V5.0584C143.989 3.59544 144.885 2.83181 146.246 2.83181C147.607 2.83181 148.503 3.59544 148.503 5.0584V7.77532H149.864C151.193 7.77532 151.91 8.16919 151.91 9.23828C151.91 10.3074 151.201 10.7012 149.864 10.7012H148.503V19.6156C148.503 20.2909 148.878 20.6526 149.677 20.6526H150.329C151.315 20.6526 151.91 21.1992 151.91 22.1477C151.91 23.4258 150.793 24.1331 148.634 24.1331C145.358 24.1331 143.997 22.7907 143.997 20.1622V10.7012H143.989Z" fill="#00AFE3"/>
<path d="M160.327 7.37341C163.757 7.37341 167.229 8.7158 167.229 10.7575C167.229 11.7944 166.52 12.7108 165.338 12.7108C163.578 12.7108 163.513 10.6691 160.669 10.6691C159.088 10.6691 158.069 11.0951 158.069 12.0436C158.069 13.0806 159.088 13.3217 160.481 13.6272L162.372 14.0532C164.939 14.6319 168.003 15.701 168.003 18.8118C168.003 22.4451 164.442 24.1251 161.044 24.1251C156.961 24.1251 153.555 22.3245 153.555 20.1301C153.555 19.1575 154.109 18.2652 155.38 18.2652C157.328 18.2652 157.515 21.0143 160.856 21.0143C162.462 21.0143 163.488 20.315 163.488 19.3986C163.488 18.2733 162.502 18.0884 160.889 17.6865L158.232 17.0434C155.6 16.4003 153.563 15.3313 153.563 12.341C153.563 8.70776 157.214 7.36537 160.335 7.36537L160.327 7.37341Z" fill="#00AFE3"/>
<path d="M36.2734 36.6474V29.7988H40.2665V30.8679H37.5365V32.8051H39.8346V33.8742H37.5365V36.6394H36.2734V36.6474Z" fill="black"/>
<path d="M41.2109 30.8842V29.791H42.4496V30.8842H41.2109ZM41.2109 36.6476V31.7282H42.4496V36.6476H41.2109Z" fill="black"/>
<path d="M43.7812 36.6491V31.7297H44.971V32.3085L44.9547 32.6541H44.971C45.1014 32.3889 45.3133 32.1477 45.6148 31.9387C45.9163 31.7217 46.2911 31.6172 46.7393 31.6172C47.8965 31.6172 48.4832 32.2442 48.4832 33.4901V36.6572H47.2446V33.7473C47.2446 33.4178 47.1875 33.1686 47.0735 32.9998C46.9594 32.831 46.7556 32.7425 46.4623 32.7425C46.0304 32.7425 45.6881 32.8953 45.4192 33.2088C45.1584 33.5142 45.0199 33.9 45.0199 34.3582V36.6652H43.7812V36.6491Z" fill="black"/>
<path d="M49.4847 34.1877C49.4847 33.416 49.6966 32.7971 50.1122 32.3228C50.5359 31.8486 51.0738 31.6155 51.742 31.6155C52.4102 31.6155 52.8828 31.8325 53.2007 32.2585H53.217C53.2007 32.1781 53.2007 32.0817 53.2007 31.9692V29.7988H54.4312V36.6474H53.2659V36.2214L53.2821 35.9159H53.2659C53.1192 36.1731 52.8991 36.3821 52.6221 36.5349C52.345 36.6876 52.0354 36.768 51.6849 36.768C51.0167 36.768 50.487 36.5268 50.0796 36.0526C49.6721 35.5783 49.4766 34.9594 49.4766 34.1877H49.4847ZM50.7397 34.1877C50.7397 34.6539 50.8537 35.0237 51.0819 35.305C51.3101 35.5864 51.6116 35.731 51.9783 35.731C52.3287 35.731 52.6302 35.6024 52.8665 35.3372C53.1029 35.0719 53.2251 34.6861 53.2251 34.1716C53.2251 33.7617 53.1192 33.408 52.8991 33.1025C52.6791 32.7971 52.3776 32.6524 51.9783 32.6524C51.6279 32.6524 51.3264 32.789 51.0901 33.0624C50.8537 33.3356 50.7315 33.7054 50.7315 34.1797L50.7397 34.1877Z" fill="black"/>
<path d="M58.3906 36.6474V29.7988H59.6537V35.5783H62.6526V36.6474H58.3906Z" fill="black"/>
<path d="M63.7983 36.0365C63.2686 35.5542 63.0078 34.9353 63.0078 34.1877C63.0078 33.4401 63.2686 32.8292 63.7983 32.3389C64.328 31.8566 64.9717 31.6074 65.7377 31.6074C66.5037 31.6074 67.1557 31.8486 67.6853 32.3389C68.215 32.8212 68.4839 33.4401 68.4839 34.1877C68.4839 34.9353 68.2232 35.5462 67.6935 36.0365C67.1638 36.5188 66.52 36.768 65.7459 36.768C64.9717 36.768 64.328 36.5268 63.7983 36.0365ZM64.2628 34.1877C64.2628 34.6378 64.4013 35.0076 64.6865 35.2889C64.9717 35.5783 65.3221 35.715 65.7377 35.715C66.1533 35.715 66.5037 35.5703 66.7971 35.2889C67.0823 34.9996 67.229 34.6378 67.229 34.1877C67.229 33.7376 67.0823 33.3758 66.7971 33.0865C66.5037 32.7971 66.1533 32.6524 65.7459 32.6524C65.3384 32.6524 64.988 32.7971 64.7028 33.0865C64.4176 33.3758 64.2709 33.7456 64.2709 34.1877H64.2628Z" fill="black"/>
<path d="M69.2031 34.1894C69.2031 33.466 69.4557 32.8631 69.9528 32.3647C70.4499 31.8664 71.1018 31.6172 71.9167 31.6172C72.2753 31.6172 72.6257 31.6815 72.9761 31.8021C73.3184 31.9226 73.6117 32.1075 73.8399 32.3487L73.2858 33.1846C72.9272 32.831 72.4953 32.6541 71.9982 32.6541C71.55 32.6541 71.1833 32.7988 70.9063 33.0962C70.6292 33.3856 70.4825 33.7473 70.4825 34.1814C70.4825 34.6155 70.6292 34.9772 70.9144 35.2746C71.1996 35.572 71.5745 35.7247 72.039 35.7247C72.5768 35.7247 73.0658 35.5157 73.5058 35.0977L73.9866 35.9659C73.7503 36.207 73.4488 36.408 73.0821 36.5527C72.7154 36.6974 72.3323 36.7697 71.933 36.7697C71.1263 36.7697 70.4744 36.5205 69.9691 36.0302C69.472 35.5398 69.2194 34.9289 69.2194 34.1894H69.2031Z" fill="black"/>
<path d="M74.4844 35.2902C74.4844 34.9446 74.5822 34.6472 74.7696 34.406C74.9652 34.1649 75.2178 33.98 75.5356 33.8674C75.8534 33.7549 76.1549 33.6745 76.4564 33.6343C76.7498 33.5861 77.0676 33.57 77.3936 33.57H77.6054V33.5057C77.6054 32.927 77.2958 32.6376 76.6683 32.6376C76.212 32.6376 75.7475 32.7984 75.283 33.1118L74.8266 32.2357C75.0385 32.0669 75.3319 31.9222 75.6986 31.8097C76.0653 31.6891 76.4238 31.6328 76.7824 31.6328C77.4343 31.6328 77.9396 31.8016 78.3063 32.1473C78.673 32.4929 78.8522 32.9752 78.8522 33.5861V36.6648H77.6951V36.2468L77.7277 35.8931H77.7114C77.5566 36.1583 77.3365 36.3673 77.0595 36.5361C76.7824 36.6969 76.4727 36.7853 76.1386 36.7853C75.6741 36.7853 75.283 36.6487 74.9733 36.3754C74.6555 36.1021 74.5007 35.7484 74.5007 35.3063L74.4844 35.2902ZM75.723 35.1777C75.723 35.3545 75.7882 35.4992 75.9267 35.6278C76.0571 35.7564 76.2446 35.8207 76.4809 35.8207C76.815 35.8207 77.0839 35.6841 77.3039 35.4188C77.524 35.1536 77.6299 34.8561 77.6299 34.5346V34.398H77.418C76.2935 34.398 75.7393 34.6552 75.7393 35.1777H75.723Z" fill="black"/>
<path d="M80.1214 35.1121V29.7988H81.3519V34.9272C81.3519 35.1844 81.3927 35.3613 81.4742 35.4577C81.5557 35.5542 81.686 35.6024 81.8572 35.6024C81.9387 35.6024 81.9957 35.6024 82.0446 35.5944V36.6635C81.8653 36.6796 81.7349 36.6956 81.6534 36.6956C81.4497 36.6956 81.2704 36.6796 81.1156 36.6394C80.9608 36.5992 80.7978 36.5349 80.6348 36.4384C80.4718 36.342 80.3415 36.1731 80.2518 35.9481C80.1622 35.723 80.1133 35.4417 80.1133 35.1121H80.1214Z" fill="black"/>
<path d="M85.5664 36.6474V29.7988H88.2474C88.8994 29.7988 89.429 30.0078 89.8446 30.4178C90.2602 30.8277 90.464 31.3663 90.464 32.0254C90.464 32.6846 90.2602 33.2312 89.8446 33.6491C89.4372 34.0671 88.8994 34.2842 88.2474 34.2842H86.8295V36.6474H85.5664ZM86.8295 33.199H88.0111C88.3778 33.199 88.663 33.0945 88.8668 32.8775C89.0705 32.6685 89.1764 32.3791 89.1764 32.0174C89.1764 31.6557 89.0705 31.3824 88.8668 31.1734C88.663 30.9644 88.386 30.8599 88.0274 30.8599H86.8214V33.191L86.8295 33.199Z" fill="black"/>
<path d="M91.3438 36.648V31.7286H92.5335V32.5967L92.5172 32.9343H92.5335C92.6476 32.5726 92.8513 32.2752 93.1365 32.026C93.4218 31.7849 93.7477 31.6562 94.1144 31.6562C94.1633 31.6562 94.2448 31.6563 94.3507 31.6723V32.8781C94.2855 32.862 94.1878 32.862 94.0492 32.862C93.5684 32.862 93.2017 33.0388 92.9573 33.3845C92.7128 33.7301 92.5824 34.1561 92.5824 34.6545V36.64H91.3438V36.648Z" fill="black"/>
<path d="M95.599 36.0365C95.0694 35.5542 94.8086 34.9353 94.8086 34.1877C94.8086 33.4401 95.0694 32.8292 95.599 32.3389C96.1287 31.8566 96.7725 31.6074 97.5385 31.6074C98.3045 31.6074 98.9564 31.8486 99.4861 32.3389C100.016 32.8212 100.285 33.4401 100.285 34.1877C100.285 34.9353 100.024 35.5462 99.4943 36.0365C98.9646 36.5188 98.3208 36.768 97.5467 36.768C96.7725 36.768 96.1287 36.5268 95.599 36.0365ZM96.0717 34.1877C96.0717 34.6378 96.2102 35.0076 96.4954 35.2889C96.7807 35.5783 97.1311 35.715 97.5467 35.715C97.9623 35.715 98.3127 35.5703 98.606 35.2889C98.8913 34.9996 99.0379 34.6378 99.0379 34.1877C99.0379 33.7376 98.8913 33.3758 98.606 33.0865C98.3127 32.7971 97.9623 32.6524 97.5548 32.6524C97.1474 32.6524 96.797 32.7971 96.5117 33.0865C96.2265 33.3758 96.0798 33.7456 96.0798 34.1877H96.0717Z" fill="black"/>
<path d="M101.526 36.6483V32.7739H100.906V31.8013H101.526V31.5923C101.526 31.2868 101.574 31.0135 101.68 30.7884C101.778 30.5634 101.9 30.3865 102.047 30.2579C102.194 30.1293 102.365 30.0328 102.56 29.9525C102.756 29.8721 102.935 29.8238 103.09 29.7997C103.245 29.7756 103.408 29.7676 103.571 29.7676C103.75 29.7676 103.897 29.7756 103.995 29.7997V30.8447C103.946 30.8286 103.856 30.8286 103.742 30.8286C103.098 30.8286 102.772 31.0939 102.772 31.6324V31.8173H103.848V32.79H102.772V36.6644H101.534L101.526 36.6483Z" fill="black"/>
<path d="M104.332 34.1894C104.332 33.4338 104.568 32.8149 105.041 32.3326C105.514 31.8503 106.125 31.6172 106.875 31.6172C107.567 31.6172 108.105 31.8342 108.496 32.2763C108.887 32.7184 109.083 33.2731 109.083 33.9483C109.083 34.0608 109.067 34.2135 109.042 34.4225H105.611C105.652 34.8325 105.807 35.154 106.092 35.3791C106.369 35.6042 106.712 35.7247 107.111 35.7247C107.608 35.7247 108.081 35.5479 108.537 35.1862L109.026 36.0623C108.781 36.2794 108.472 36.4562 108.113 36.5768C107.755 36.7054 107.388 36.7617 107.021 36.7617C106.223 36.7617 105.571 36.5125 105.074 36.0141C104.577 35.5157 104.332 34.9048 104.332 34.1894ZM105.644 33.5785H107.844C107.844 33.257 107.738 32.9998 107.559 32.8149C107.372 32.63 107.135 32.5335 106.85 32.5335C106.54 32.5335 106.272 32.63 106.06 32.8149C105.848 33.0078 105.709 33.257 105.652 33.5705L105.644 33.5785Z" fill="black"/>
<path d="M109.719 36.0367L110.273 35.2249C110.673 35.5866 111.145 35.7634 111.691 35.7634C111.911 35.7634 112.082 35.7232 112.205 35.6348C112.327 35.5464 112.384 35.4258 112.384 35.2731C112.384 35.1284 112.302 35.0078 112.131 34.9033C111.96 34.7988 111.756 34.7024 111.52 34.6059C111.284 34.5095 111.039 34.413 110.795 34.3085C110.55 34.204 110.338 34.0513 110.167 33.8423C109.996 33.6333 109.915 33.3761 109.915 33.0786C109.915 32.6124 110.094 32.2507 110.461 31.9935C110.819 31.7363 111.276 31.5996 111.822 31.5996C112.514 31.5996 113.076 31.7845 113.5 32.1623L113.044 33.0224C112.897 32.9018 112.71 32.7973 112.473 32.7169C112.237 32.6365 112.009 32.5964 111.781 32.5964C111.316 32.5964 111.088 32.7491 111.088 33.0545C111.088 33.1912 111.178 33.3118 111.349 33.4082C111.52 33.5047 111.732 33.6011 111.976 33.6976C112.221 33.794 112.457 33.8825 112.702 33.9789C112.946 34.0754 113.15 34.2281 113.313 34.4532C113.476 34.6702 113.557 34.9355 113.557 35.2409C113.557 35.675 113.386 36.0367 113.036 36.3261C112.693 36.6155 112.237 36.7521 111.667 36.7521C110.868 36.7521 110.216 36.511 109.711 36.0287L109.719 36.0367Z" fill="black"/>
<path d="M114.188 36.0367L114.742 35.2249C115.141 35.5866 115.614 35.7634 116.16 35.7634C116.38 35.7634 116.551 35.7232 116.673 35.6348C116.796 35.5464 116.853 35.4258 116.853 35.2731C116.853 35.1284 116.771 35.0078 116.6 34.9033C116.429 34.7988 116.225 34.7024 115.989 34.6059C115.752 34.5095 115.508 34.413 115.264 34.3085C115.019 34.204 114.807 34.0513 114.636 33.8423C114.465 33.6333 114.383 33.3761 114.383 33.0786C114.383 32.6124 114.563 32.2507 114.929 31.9935C115.288 31.7363 115.744 31.5996 116.29 31.5996C116.983 31.5996 117.545 31.7845 117.969 32.1623L117.513 33.0224C117.366 32.9018 117.179 32.7973 116.942 32.7169C116.706 32.6365 116.478 32.5964 116.25 32.5964C115.785 32.5964 115.557 32.7491 115.557 33.0545C115.557 33.1912 115.647 33.3118 115.818 33.4082C115.989 33.5047 116.201 33.6011 116.445 33.6976C116.69 33.794 116.926 33.8825 117.17 33.9789C117.415 34.0754 117.619 34.2281 117.782 34.4532C117.945 34.6702 118.026 34.9355 118.026 35.2409C118.026 35.675 117.855 36.0367 117.504 36.3261C117.162 36.6155 116.706 36.7521 116.135 36.7521C115.337 36.7521 114.685 36.511 114.18 36.0287L114.188 36.0367Z" fill="black"/>
<path d="M119.062 30.8842V29.791H120.301V30.8842H119.062ZM119.062 36.6476V31.7282H120.301V36.6476H119.062Z" fill="black"/>
<path d="M122.126 36.0365C121.597 35.5542 121.336 34.9353 121.336 34.1877C121.336 33.4401 121.597 32.8292 122.126 32.3389C122.656 31.8566 123.3 31.6074 124.066 31.6074C124.832 31.6074 125.484 31.8486 126.013 32.3389C126.543 32.8212 126.812 33.4401 126.812 34.1877C126.812 34.9353 126.551 35.5462 126.022 36.0365C125.492 36.5188 124.848 36.768 124.074 36.768C123.3 36.768 122.656 36.5268 122.126 36.0365ZM122.591 34.1877C122.591 34.6378 122.729 35.0076 123.015 35.2889C123.3 35.5783 123.65 35.715 124.066 35.715C124.481 35.715 124.832 35.5703 125.125 35.2889C125.41 34.9996 125.557 34.6378 125.557 34.1877C125.557 33.7376 125.41 33.3758 125.125 33.0865C124.832 32.7971 124.481 32.6524 124.074 32.6524C123.667 32.6524 123.316 32.7971 123.031 33.0865C122.746 33.3758 122.599 33.7456 122.599 34.1877H122.591Z" fill="black"/>
<path d="M127.828 36.6491V31.7297H129.018V32.3085L129.002 32.6541H129.018C129.148 32.3889 129.36 32.1477 129.662 31.9387C129.963 31.7217 130.338 31.6172 130.786 31.6172C131.943 31.6172 132.53 32.2442 132.53 33.4901V36.6572H131.291V33.7473C131.291 33.4178 131.234 33.1686 131.12 32.9998C131.006 32.831 130.803 32.7425 130.509 32.7425C130.077 32.7425 129.735 32.8953 129.466 33.2088C129.205 33.5142 129.067 33.9 129.067 34.3582V36.6652H127.828V36.6491Z" fill="black"/>
<path d="M133.438 35.2902C133.438 34.9446 133.535 34.6472 133.723 34.406C133.918 34.1649 134.171 33.98 134.489 33.8674C134.807 33.7549 135.108 33.6745 135.41 33.6343C135.703 33.5861 136.021 33.57 136.347 33.57H136.559V33.5057C136.559 32.927 136.249 32.6376 135.621 32.6376C135.165 32.6376 134.701 32.7984 134.236 33.1118L133.78 32.2357C133.992 32.0669 134.285 31.9222 134.652 31.8097C135.018 31.6891 135.377 31.6328 135.736 31.6328C136.387 31.6328 136.893 31.8016 137.259 32.1473C137.626 32.4929 137.805 32.9752 137.805 33.5861V36.6648H136.648V36.2468L136.681 35.8931H136.665C136.51 36.1583 136.29 36.3673 136.013 36.5361C135.736 36.6969 135.426 36.7853 135.092 36.7853C134.627 36.7853 134.236 36.6487 133.926 36.3754C133.609 36.1021 133.454 35.7484 133.454 35.3063L133.438 35.2902ZM134.668 35.1777C134.668 35.3545 134.733 35.4992 134.872 35.6278C135.002 35.7564 135.19 35.8207 135.426 35.8207C135.76 35.8207 136.029 35.6841 136.249 35.4188C136.469 35.1536 136.575 34.8561 136.575 34.5346V34.398H136.363C135.238 34.398 134.684 34.6552 134.684 35.1777H134.668Z" fill="black"/>
<path d="M139.063 35.1121V29.7988H140.293V34.9272C140.293 35.1844 140.334 35.3613 140.416 35.4577C140.497 35.5542 140.627 35.6024 140.799 35.6024C140.88 35.6024 140.937 35.6024 140.986 35.5944V36.6635C140.807 36.6796 140.676 36.6956 140.595 36.6956C140.391 36.6956 140.212 36.6796 140.057 36.6394C139.902 36.5992 139.739 36.5349 139.576 36.4384C139.413 36.342 139.283 36.1731 139.193 35.9481C139.104 35.723 139.055 35.4417 139.055 35.1121H139.063Z" fill="black"/>
<path d="M141.493 36.0367L142.047 35.2249C142.446 35.5866 142.919 35.7634 143.465 35.7634C143.685 35.7634 143.856 35.7232 143.978 35.6348C144.1 35.5464 144.157 35.4258 144.157 35.2731C144.157 35.1284 144.076 35.0078 143.905 34.9033C143.734 34.7988 143.53 34.7024 143.293 34.6059C143.057 34.5095 142.813 34.413 142.568 34.3085C142.324 34.204 142.112 34.0513 141.941 33.8423C141.77 33.6333 141.688 33.3761 141.688 33.0786C141.688 32.6124 141.867 32.2507 142.234 31.9935C142.593 31.7363 143.049 31.5996 143.595 31.5996C144.288 31.5996 144.85 31.7845 145.274 32.1623L144.817 33.0224C144.671 32.9018 144.483 32.7973 144.247 32.7169C144.011 32.6365 143.782 32.5964 143.554 32.5964C143.09 32.5964 142.862 32.7491 142.862 33.0545C142.862 33.1912 142.951 33.3118 143.122 33.4082C143.293 33.5047 143.505 33.6011 143.75 33.6976C143.994 33.794 144.231 33.8825 144.475 33.9789C144.72 34.0754 144.923 34.2281 145.086 34.4532C145.249 34.6702 145.331 34.9355 145.331 35.2409C145.331 35.675 145.16 36.0367 144.809 36.3261C144.467 36.6155 144.011 36.7521 143.44 36.7521C142.642 36.7521 141.99 36.511 141.484 36.0287L141.493 36.0367Z" fill="black"/>
<path d="M146.344 34.4304V33.3613H149.277V34.4304H146.344Z" fill="black"/>
<path d="M150.758 36.6474V29.7988H154.751V30.8679H152.021V32.8051H154.319V33.8742H152.021V36.6394H150.758V36.6474Z" fill="black"/>
<path d="M155.016 35.2902C155.016 34.9446 155.113 34.6472 155.301 34.406C155.496 34.1649 155.749 33.98 156.067 33.8674C156.385 33.7549 156.686 33.6745 156.988 33.6343C157.281 33.5861 157.599 33.57 157.925 33.57H158.137V33.5057C158.137 32.927 157.827 32.6376 157.2 32.6376C156.743 32.6376 156.279 32.7984 155.814 33.1118L155.358 32.2357C155.57 32.0669 155.863 31.9222 156.23 31.8097C156.597 31.6891 156.955 31.6328 157.314 31.6328C157.966 31.6328 158.471 31.8016 158.838 32.1473C159.204 32.4929 159.383 32.9752 159.383 33.5861V36.6648H158.226V36.2468L158.259 35.8931H158.243C158.088 36.1583 157.868 36.3673 157.591 36.5361C157.314 36.6969 157.004 36.7853 156.67 36.7853C156.205 36.7853 155.814 36.6487 155.505 36.3754C155.187 36.1021 155.032 35.7484 155.032 35.3063L155.016 35.2902ZM156.254 35.1777C156.254 35.3545 156.319 35.4992 156.458 35.6278C156.588 35.7564 156.776 35.8207 157.012 35.8207C157.346 35.8207 157.615 35.6841 157.835 35.4188C158.055 35.1536 158.161 34.8561 158.161 34.5346V34.398H157.949C156.825 34.398 156.271 34.6552 156.271 35.1777H156.254Z" fill="black"/>
<path d="M160.243 36.0367L160.797 35.2249C161.196 35.5866 161.669 35.7634 162.215 35.7634C162.435 35.7634 162.606 35.7232 162.728 35.6348C162.85 35.5464 162.907 35.4258 162.907 35.2731C162.907 35.1284 162.826 35.0078 162.655 34.9033C162.484 34.7988 162.28 34.7024 162.043 34.6059C161.807 34.5095 161.563 34.413 161.318 34.3085C161.074 34.204 160.862 34.0513 160.691 33.8423C160.52 33.6333 160.438 33.3761 160.438 33.0786C160.438 32.6124 160.617 32.2507 160.984 31.9935C161.343 31.7363 161.799 31.5996 162.345 31.5996C163.038 31.5996 163.6 31.7845 164.024 32.1623L163.567 33.0224C163.421 32.9018 163.233 32.7973 162.997 32.7169C162.761 32.6365 162.532 32.5964 162.304 32.5964C161.84 32.5964 161.612 32.7491 161.612 33.0545C161.612 33.1912 161.701 33.3118 161.872 33.4082C162.043 33.5047 162.255 33.6011 162.5 33.6976C162.744 33.794 162.981 33.8825 163.225 33.9789C163.47 34.0754 163.673 34.2281 163.836 34.4532C163.999 34.6702 164.081 34.9355 164.081 35.2409C164.081 35.675 163.91 36.0367 163.559 36.3261C163.217 36.6155 162.761 36.7521 162.19 36.7521C161.392 36.7521 160.74 36.511 160.234 36.0287L160.243 36.0367Z" fill="black"/>
<path d="M165.363 34.8397V32.7658H164.719V31.7932H165.395V30.3865H166.609V31.7932H167.742V32.7658H166.609V34.687C166.609 35.0407 166.715 35.2818 166.919 35.4185C167.123 35.5551 167.351 35.6194 167.595 35.6194C167.677 35.6194 167.758 35.6194 167.824 35.6033V36.6724C167.628 36.6885 167.498 36.7046 167.441 36.7046C167.269 36.7046 167.106 36.6965 166.952 36.6724C166.797 36.6483 166.617 36.6001 166.414 36.5197C166.21 36.4393 166.039 36.3429 165.892 36.2142C165.746 36.0856 165.623 35.9088 165.517 35.6757C165.411 35.4426 165.363 35.1693 165.363 34.8477V34.8397Z" fill="black"/>
<path d="M13.6281 0.653746C19.5931 1.81929 24.507 8.01677 23.0565 13.8525C21.7934 18.9166 16.7247 26.0626 13.5466 30.3309C13.0495 30.9981 12.3487 32.0832 11.7945 32.6379C11.7456 32.6861 11.7293 32.7826 11.6234 32.7585C8.63272 28.8358 5.66648 24.7926 3.23808 20.5002C0.548902 15.7496 -1.53725 11.5456 1.48604 6.28855C3.0588 3.54751 6.48953 1.27269 9.68394 0.653746C10.7759 0.444752 12.6176 0.45279 13.6281 0.653746ZM11.273 5.28377C6.43249 5.56511 3.43365 10.7257 5.78872 14.9538C8.29046 19.4471 15.0786 19.423 17.5396 14.9055C20.0006 10.3961 16.415 4.98635 11.273 5.28377Z" fill="#00AFE3"/>
<path d="M5.20232 34.4301L17.9066 34.4141C19.8624 34.5909 20.0172 37.1149 18.1185 37.5007H5.19417C3.38509 37.139 3.41769 34.7919 5.21047 34.4301H5.20232Z" fill="#00AFE3"/>
</g>
<defs>
<clipPath id="clip0_9_51">
<rect width="168" height="37" fill="white" transform="translate(0 0.5)"/>
</clipPath>
</defs>
</svg>
