<svg width="10" height="13" viewBox="0 0 10 13" fill="none" xmlns="http://www.w3.org/2000/svg">
<path d="M4.88867 6.43094C4.49259 6.43094 4.11272 6.2736 3.83265 5.99352C3.55257 5.71345 3.39523 5.33359 3.39523 4.9375C3.39523 4.54141 3.55257 4.16155 3.83265 3.88148C4.11272 3.6014 4.49259 3.44406 4.88867 3.44406C5.28476 3.44406 5.66462 3.6014 5.9447 3.88148C6.22477 4.16155 6.38211 4.54141 6.38211 4.9375C6.38211 5.13362 6.34349 5.32782 6.26843 5.50902C6.19338 5.69021 6.08337 5.85484 5.9447 5.99352C5.80602 6.1322 5.64138 6.24221 5.46019 6.31726C5.279 6.39231 5.08479 6.43094 4.88867 6.43094ZM4.88867 0.755859C3.77963 0.755859 2.71602 1.19642 1.93181 1.98063C1.1476 2.76484 0.707031 3.82846 0.707031 4.9375C0.707031 8.07373 4.88867 12.7034 4.88867 12.7034C4.88867 12.7034 9.07031 8.07373 9.07031 4.9375C9.07031 3.82846 8.62975 2.76484 7.84554 1.98063C7.06133 1.19642 5.99771 0.755859 4.88867 0.755859Z" fill="black"/>
</svg>
