<svg width="29" height="28" viewBox="0 0 29 28" fill="none" xmlns="http://www.w3.org/2000/svg">
<mask id="mask0_264_6" style="mask-type:alpha" maskUnits="userSpaceOnUse" x="0" y="0" width="29" height="28">
<path d="M15.7011 1.38996C15.4017 0.468647 14.0983 0.468647 13.7989 1.38996L11.2051 9.37288C11.0713 9.78491 10.6873 10.0638 10.2541 10.0638H1.8603C0.891598 10.0638 0.488798 11.3035 1.2726 11.8729L8.0632 16.8066C8.4137 17.0612 8.5604 17.5126 8.4265 17.9246L5.8327 25.9075C5.5333 26.8288 6.5878 27.595 7.3715 27.0256L14.1622 22.0919C14.5127 21.8372 14.9873 21.8372 15.3378 22.0919L22.1285 27.0256C22.9122 27.595 23.9667 26.8288 23.6673 25.9075L21.0735 17.9246C20.9396 17.5126 21.0863 17.0612 21.4368 16.8066L28.2274 11.8729C29.0112 11.3035 28.6084 10.0638 27.6397 10.0638H19.2459C18.8127 10.0638 18.4287 9.78491 18.2949 9.37288L15.7011 1.38996Z" fill="#FFD633"/>
</mask>
<g mask="url(#mask0_264_6)">
<rect width="15" height="28" transform="matrix(-1 0 0 1 15 0)" fill="#FFD633"/>
</g>
</svg>
