<svg width="29" height="28" viewBox="0 0 29 28" fill="none" xmlns="http://www.w3.org/2000/svg">
<path d="M13.2989 1.38994C13.5983 0.468631 14.9017 0.468631 15.2011 1.38994L17.7949 9.37286C17.9287 9.78489 18.3127 10.0638 18.7459 10.0638H27.1397C28.1084 10.0638 28.5112 11.3035 27.7274 11.8729L20.9368 16.8066C20.5863 17.0612 20.4396 17.5126 20.5735 17.9246L23.1673 25.9075C23.4667 26.8288 22.4122 27.595 21.6285 27.0256L14.8378 22.0919C14.4873 21.8372 14.0127 21.8372 13.6622 22.0919L6.87154 27.0256C6.08782 27.595 5.03334 26.8288 5.33269 25.9075L7.9265 17.9246C8.06038 17.5126 7.91372 17.0612 7.56323 16.8066L0.772551 11.8729C-0.0111625 11.3035 0.391613 10.0638 1.36034 10.0638H9.75408C10.1873 10.0638 10.5713 9.78489 10.7051 9.37286L13.2989 1.38994Z" fill="#FFD633"/>
</svg>
